<svg width="150" height="150" viewBox="0 0 150 150" fill="none" xmlns="http://www.w3.org/2000/svg">
<path d="M74.1539 147C39.5339 147 11.3669 118.833 11.3669 84.2099C11.3669 62.0519 22.6949 41.9609 41.6729 30.4709C42.6391 29.8857 43.7112 29.4965 44.8278 29.3256C45.9444 29.1546 47.0837 29.2053 48.1808 29.4747C49.2778 29.7441 50.311 30.2269 51.2215 30.8956C52.1319 31.5643 52.9017 32.4057 53.4869 33.3719C54.0722 34.3381 54.4614 35.4102 54.6323 36.5268C54.8033 37.6434 54.7526 38.7827 54.4832 39.8798C54.2138 40.9768 53.731 42.01 53.0623 42.9205C52.3936 43.8309 51.5522 44.6007 50.5859 45.186C36.8009 53.532 28.5719 68.1239 28.5719 84.2099C28.5719 109.347 49.0199 129.795 74.1569 129.795C99.294 129.795 119.739 109.347 119.739 84.2099C119.739 67.8599 110.907 52.6649 96.678 44.5649C95.6759 44.0171 94.793 43.2752 94.0807 42.3825C93.3685 41.4897 92.8411 40.4641 92.5295 39.3654C92.2178 38.2668 92.1281 37.117 92.2655 35.9833C92.4029 34.8495 92.7647 33.7545 93.3299 32.7621C93.895 31.7697 94.6521 30.8998 95.557 30.2031C96.4619 29.5064 97.4965 28.9969 98.6005 28.7043C99.7044 28.4117 100.856 28.3419 101.987 28.4989C103.118 28.656 104.206 29.0367 105.189 29.6189C114.822 35.1154 122.832 43.0589 128.408 52.6458C133.984 62.2326 136.929 73.1223 136.944 84.2129C136.941 118.833 108.78 147 74.1539 147ZM73.5 83.352C68.7509 83.352 63 79.4999 63 74.7509V12.8219C63 8.07295 68.7509 4.22095 73.5 4.22095C78.2489 4.22095 84 8.07295 84 12.8219V74.7509C84 79.4999 78.2489 83.352 73.5 83.352Z" fill="#3498DB"/>
</svg>
