<svg width="26" height="36" viewBox="0 0 26 36" fill="none" xmlns="http://www.w3.org/2000/svg">
<path d="M12.7451 17.0313C11.5379 17.0313 10.3801 16.5706 9.52647 15.7506C8.67284 14.9305 8.19328 13.8183 8.19328 12.6585C8.19328 11.4988 8.67284 10.3866 9.52647 9.56649C10.3801 8.74643 11.5379 8.28573 12.7451 8.28573C13.9523 8.28573 15.1101 8.74643 15.9637 9.56649C16.8174 10.3866 17.2969 11.4988 17.2969 12.6585C17.2969 13.2328 17.1792 13.8014 16.9504 14.3319C16.7217 14.8625 16.3864 15.3445 15.9637 15.7506C15.541 16.1566 15.0393 16.4787 14.487 16.6985C13.9348 16.9182 13.3429 17.0313 12.7451 17.0313ZM12.7451 0.414673C9.36489 0.414673 6.12312 1.70465 3.73295 4.00082C1.34278 6.29699 0 9.41126 0 12.6585C0 21.8414 12.7451 35.3971 12.7451 35.3971C12.7451 35.3971 25.4902 21.8414 25.4902 12.6585C25.4902 9.41126 24.1474 6.29699 21.7572 4.00082C19.3671 1.70465 16.1253 0.414673 12.7451 0.414673Z" fill="black"/>
</svg>
