<svg width="32" height="32" viewBox="0 0 32 32" fill="none" xmlns="http://www.w3.org/2000/svg">
<path d="M15.8196 31.3599C8.43401 31.3599 2.42505 25.351 2.42505 17.9647C2.42505 13.2377 4.84169 8.95159 8.89033 6.50039C9.09645 6.37554 9.32515 6.29251 9.56336 6.25604C9.80157 6.21958 10.0446 6.23039 10.2787 6.28786C10.5127 6.34532 10.7331 6.44833 10.9273 6.59098C11.1216 6.73363 11.2858 6.91315 11.4107 7.11927C11.5355 7.32539 11.6185 7.55409 11.655 7.7923C11.6915 8.03051 11.6807 8.27357 11.6232 8.5076C11.5657 8.74164 11.4627 8.96206 11.3201 9.15629C11.1774 9.35051 10.9979 9.51474 10.7918 9.63959C7.85097 11.4201 6.09545 14.533 6.09545 17.9647C6.09545 23.3273 10.4577 27.6895 15.8203 27.6895C21.1828 27.6895 25.5444 23.3273 25.5444 17.9647C25.5444 14.4767 23.6603 11.2351 20.6247 9.50711C20.411 9.39023 20.2226 9.23196 20.0707 9.04151C19.9187 8.85107 19.8062 8.63227 19.7397 8.39788C19.6732 8.1635 19.6541 7.91821 19.6834 7.67635C19.7127 7.43449 19.7899 7.20088 19.9105 6.98917C20.031 6.77745 20.1926 6.59187 20.3856 6.44324C20.5786 6.29462 20.7994 6.18592 21.0349 6.1235C21.2704 6.06109 21.5159 6.04619 21.7573 6.07969C21.9986 6.1132 22.2308 6.19442 22.4404 6.31863C24.4954 7.4912 26.2042 9.18583 27.3938 11.231C28.5834 13.2762 29.2116 15.5994 29.2148 17.9653C29.2142 25.3509 23.2065 31.3599 15.8196 31.3599ZM15.6801 17.7817C14.667 17.7817 13.4401 16.9599 13.4401 15.9468V2.73527C13.4401 1.72215 14.667 0.900391 15.6801 0.900391C16.6932 0.900391 17.9201 1.72215 17.9201 2.73527V15.9468C17.9201 16.9599 16.6932 17.7817 15.6801 17.7817Z" fill="#3498DB"/>
</svg>
