<svg width="30" height="30" viewBox="0 0 30 30" fill="none" xmlns="http://www.w3.org/2000/svg">
<path d="M20.5176 19.1382L19.7741 19.915C19.7741 19.915 18.0045 21.7602 13.1761 16.722C8.34775 11.6838 10.1173 9.83859 10.1173 9.83859L10.5847 9.34815C11.7399 8.14433 11.8494 6.20999 10.8412 4.79696L8.78238 1.91089C7.53403 0.161747 5.12391 -0.0697558 3.69419 1.42216L1.12884 4.09731C0.421331 4.83812 -0.0525225 5.795 0.00466663 6.8582C0.151724 9.57965 1.32492 15.4324 7.86736 22.2609C14.8069 29.501 21.3182 29.7891 23.98 29.5284C24.8231 29.4461 25.5551 28.9968 26.145 28.3795L28.4653 25.9581C30.0339 24.3239 29.5927 21.5201 27.5862 20.3763L24.4653 18.5946C23.1483 17.8452 21.547 18.0647 20.5176 19.1382Z" fill="black"/>
</svg>
